# xmcd
#
# Track frame offsets: 
#        182
#        16492
#        30875
#        43440
#        63890
#        85867
#        101440
#        119652
#        137300
#        149270
#        168150
#        183775
#
# Disc length: 2669 seconds
#
# Revision: 0
# Processed by: cddbd v1.5.2PL0 Copyright (c) Steve Scherf et al.
# Submitted via: ExactAudioCopyFreeDBPlugin 1.0
#
DISCID=940a6b0c
DTITLE=譚詠麟 - 反斗星
DYEAR=1979
DGENRE=流行音樂
TTITLE0=反斗星
TTITLE1=勁舞熱辣辣
TTITLE2=願你接受
TTITLE3=唱一首好歌
TTITLE4=可會有明天
TTITLE5=愛在陽光空氣中
TTITLE6=孩兒
TTITLE7=不要嚕囌
TTITLE8=玩得開心啲
TTITLE9=恩愛盡變
TTITLE10=星語
TTITLE11=個心立立亂
EXTD=YEAR: 1979
EXTT0=
EXTT1=
EXTT2=
EXTT3=
EXTT4=
EXTT5=
EXTT6=
EXTT7=
EXTT8=
EXTT9=
EXTT10=
EXTT11=
PLAYORDER=
